<svg xmlns="http://www.w3.org/2000/svg" viewBox="0 0 24 24" fill="#95BF47">
  <path d="M16.7 5.3c-.1 0-.2 0-.3.1-.1 0-1.4.4-1.4.4s-1-1-1.1-1.1c-.2-.2-.5-.2-.6-.2h-.2c-.1-.2-.3-.4-.5-.6-.6-.6-1.5-.9-2.4-.9h-.1c-.1 0-.1-.1-.2-.1-.4-.4-.9-.6-1.4-.6-3.4 0-5 4.2-5.5 6.3-.9.3-1.6.5-1.7.5-.5.2-.5.2-.6.6 0 .3-1.4 10.9-1.4 10.9L13.6 23l7.8-1.7S16.9 5.4 16.7 5.3zm-3.5.9l-1.1.3c0-.4.1-1 .1-1.6.4.1.7.6 1 1.3zm-1.8-2.4c.1 0 .2.1.3.1-.1.7-.2 1.4-.2 2.3l-1.7.5c.2-.9.8-2.3 1.6-2.9zm-.4 8.5c.1.7 2.3 1.1 2.5 3.2.1 1.7-.9 2.8-2.3 2.9-1.7.1-2.7-1-2.7-1l.4-1.6s1 .7 1.7.7c.5 0 .7-.4.7-.6 0-1.1-1.9-1.1-2.1-3-.2-1.6.9-3.2 3.2-3.4 1-.1 1.4.2 1.4.2l-.5 2s-.6-.3-1.4-.3c-1.1.1-1.1.7-1.1.9zm2.4-6.6c0 .5-.1 1.1-.1 1.7l-1.4.4c0-.9.1-1.8.3-2.5.5.1.9.3 1.2.4zm3.4-.4c-.1-.5-.4-1-.8-1.4l.9 3.2-1.1.3 1-2.1z"/>
</svg>
