<?xml version="1.0" encoding="UTF-8"?>
<svg id="Layer_1" xmlns="http://www.w3.org/2000/svg" version="1.1" viewBox="0 0 382.6 79.4">
  <!-- Generator: Adobe Illustrator 29.5.1, SVG Export Plug-In . SVG Version: 2.1.0 Build 141)  -->
  <defs>
    <style>
      .st0 {
        fill: none;
      }

      .st1 {
        fill: #00e8b7;
      }

      .st2 {
        fill: #fff;
      }
    </style>
  </defs>
  <rect class="st0" y="0" width="382.6" height="79.4"/>
  <g>
    <g>
      <path class="st2" d="M100.8,62.3V17.1h9v45.2s-9,0-9,0Z"/>
      <path class="st2" d="M237.8,39.7c0,12.8-4.9,23-30.4,23h-1.3c-25.6,0-30.4-10.2-30.4-23s4.9-23,30.4-23h1.3c25.6,0,30.4,10.2,30.4,23ZM227.3,39.7c0-16.4-9-17.4-18.3-17.4h-4.6c-9.1,0-18.3,1-18.3,17.4s9.1,17.9,18.3,17.9h4.6c9.3,0,18.3-1.5,18.3-17.9Z"/>
      <path class="st2" d="M298.7,62.3h-5.7c-4.5,0-9.1-2.6-14.7-8.9l-3-3.4h-24.5v12.2h-9.5V17.1h36.4c14.6,0,18,5.7,17.7,16.6-.2,5.7-1.6,13-10.6,15.5l13.9,13.1h0ZM287.1,33.9c0-7-1.3-11.1-9.8-11.1h-26.4v20.5h26.4c4.7,0,9.8-1.4,9.8-9.5h0Z"/>
      <path class="st2" d="M348.6,17.1l-23.1,29.1v16.1h-8.9v-15.9l-23.7-29.3h10.3l18,22.6,17.1-22.6h10.3Z"/>
      <g>
        <path class="st2" d="M31.5,62.4l20-33.2c6-10,10-12.4,25.4-12.4h17.7v45.6h-9.2V24.8c-17,0-20.3-1.9-28.4,11.3l-15.6,26.4h-10,0Z"/>
        <path class="st1" d="M74.2,53v9.4h-16.5l1.6-3.1c1.2-2.1,2.2-4,3.9-5,0,0,2-1.4,5.5-1.4h5.5Z"/>
      </g>
      <path class="st2" d="M179.2,17l-20,33c-6,10-10,12.4-25.4,12.4h-17.7V17h9.2v39.7c17,0,20.3,1.9,28.4-11.3l15.6-28.5h10-.1Z"/>
    </g>
    <path class="st2" d="M32.4,17.7v-.5h4.1v.5h-4.1ZM34.2,22.8v-5.4h.5v5.4h-.5ZM37.8,22.8v-5.6h.5v5.6h-.5ZM40.4,22.8l-2.5-5.6h.5l2.2,5,2.2-5h.5l-2.5,5.6h-.5,0ZM43,22.8v-5.6h.5v5.6h-.5Z"/>
  </g>
</svg>