<?xml version="1.0" encoding="UTF-8"?>
<svg id="Layer_1" xmlns="http://www.w3.org/2000/svg" version="1.1" viewBox="0 0 293 163.8">
  <!-- Generator: Adobe Illustrator 30.4.0, SVG Export Plug-In . SVG Version: 2.1.4 Build 226)  -->
  <defs>
    <style>
      .st0 {
        font-family: Akkurat, Akkurat;
        font-size: 31.4px;
      }

      .st0, .st1, .st2 {
        fill: #fff;
      }

      .st1 {
        font-family: AuxMono-Regular, 'Aux Mono';
        font-size: 11.3px;
      }
    </style>
  </defs>
  <g>
    <path class="st2" d="M50,94l23.5-39.1c7.1-11.8,11.8-14.5,29.9-14.5h20.8v53.6h-10.8v-44.3c-19.9,0-23.8-2.3-33.4,13.3l-18.3,31h-11.7Z"/>
    <path class="st2" d="M99.6,82.9v11.1h-19.4l1.9-3.6c1.4-2.4,2.6-4.7,4.6-5.8,0,0,2.4-1.6,6.4-1.6h6.5Z"/>
  </g>
  <text class="st0" transform="translate(234.8 83.7) scale(1 1)"><tspan x="0" y="0">©</tspan></text>
  <g>
    <path class="st2" d="M143.9,27.7v34.8h-5.1V27.7h-50.2v-3.9h67.1v3.9h-11.9Z"/>
    <path class="st2" d="M162.2,57V23.8h26.7v3.8h-21.7v10.1h19.1v3.9h-19.1v11.5h21.7v3.8h-26.7Z"/>
    <path class="st2" d="M225,46.4c0,1.6-.5,3-1.2,4.3-.7,1.3-1.6,2.4-2.8,3.4-1.2,1-2.7,1.8-4.6,2.5-1.9.7-3.9,1-6.1,1s-4-.3-5.9-.9c-1.9-.6-3.5-1.5-5-2.7-1.1-.9-2-1.8-2.6-2.9-.7-1-1.2-2.1-1.5-3.3-.4-1.2-.6-2.4-.7-3.6-.1-1.3-.2-2.6-.2-3.9s0-2.6.2-3.9c.1-1.3.3-2.5.7-3.6.4-1.2.9-2.3,1.5-3.3.7-1,1.5-2,2.6-2.9,1.4-1.2,3.1-2.1,5-2.7,1.9-.6,3.8-.9,5.9-.9s4.2.3,6.1,1c1.9.6,3.4,1.5,4.6,2.5,1.2,1,2.1,2.1,2.8,3.4s1.1,2.7,1.2,4.2h-5.2c0-.9-.3-1.8-.6-2.5s-.9-1.5-1.6-2.1c-.8-.7-1.8-1.3-3-1.8-1.2-.5-2.6-.7-4.2-.7s-2.7.2-3.9.7-2.4,1.1-3.4,1.9c-.8.7-1.5,1.5-1.9,2.4s-.8,1.8-1,2.7c-.2,1-.4,1.9-.4,2.9,0,1,0,1.9,0,2.8s0,1.8,0,2.8c0,1,.2,1.9.4,2.9.2,1,.6,1.9,1,2.8s1.1,1.7,1.9,2.4c1,.8,2.1,1.4,3.4,1.9s2.6.7,3.9.7,2.9-.2,4.2-.7c1.3-.5,2.3-1.1,3.1-1.8.6-.6,1.2-1.4,1.6-2.2.4-.8.6-1.7.6-2.6h5.2Z"/>
    <path class="st2" d="M257,57v-15.3h-19.2v15.3h-5V23.8h5v13.9h19.2v-13.9h5v33.2h-5Z"/>
    <path class="st2" d="M138.9,94v-33.2h5v29.3h19.2v3.9h-24.2Z"/>
    <path class="st2" d="M193.3,94l-3.3-7.9h-17.4l-3.2,7.9h-5.1l14.1-33.2h5.9l14.1,33.2h-5.2ZM181.3,65l-7,17.3h14.1l-7.1-17.3Z"/>
    <path class="st2" d="M233.8,84.8c0,1.3-.3,2.5-.9,3.5-.6,1-1.3,1.9-2.2,2.7-1.1,1-2.6,1.8-4.4,2.3-1.8.5-3.7.8-5.7.8h-16.1v-33.2h16c1.9,0,3.7.3,5.5.8,1.8.5,3.2,1.3,4.3,2.3.8.7,1.4,1.5,1.9,2.4s.7,1.9.7,3.1-.5,3.1-1.5,4.5c-1,1.4-2.4,2.3-4.3,2.9,1,.3,1.9.7,2.8,1.2.8.5,1.5,1.2,2.1,1.9.6.7,1,1.5,1.3,2.3s.5,1.7.5,2.6ZM227.7,69.7c0-.9-.2-1.6-.6-2.3-.4-.6-.9-1.2-1.6-1.6-.7-.4-1.4-.8-2.3-1-.9-.2-1.8-.3-2.7-.3h-11v10.5h11.2c2.1,0,3.8-.4,5.1-1.2,1.3-.8,1.9-2.2,1.9-4.1ZM228.6,84.5c0-.9-.2-1.8-.6-2.5-.4-.7-1-1.3-1.7-1.8s-1.6-.9-2.5-1.1c-1-.3-2-.4-3-.4h-11.3v11.6h11.2c1.1,0,2.1-.1,3.1-.3,1-.2,1.8-.6,2.5-1s1.3-1.1,1.7-1.8c.4-.7.6-1.6.6-2.6Z"/>
  </g>
  <path class="st2" d="M30.9,94s32.9-51.3,35.8-55.6,6.9-10.8,21.9-10.8v-3.9s-13.4-.8-21.1,8c-7.7,8.8-41.3,62.2-41.3,62.2h4.6Z"/>
  <text class="st1" transform="translate(24.4 122.9)"><tspan x="0" y="0">AIVORY</tspan><tspan x="0" y="10.7">AI SYSTEM</tspan><tspan x="0" y="21.3">LAB</tspan></text>
  <text class="st1" transform="translate(197.3 122.9)"><tspan x="0" y="0">STRATEGY</tspan><tspan x="-31.7" y="10.7">ARCHITECTURE</tspan><tspan x="0" y="21.3">DELIVERY</tspan></text>
  <circle class="st2" cx="124.2" cy="116.8" r="2.7"/>
  <circle class="st2" cx="124.2" cy="141.5" r="2.7"/>
  <circle class="st2" cx="131.3" cy="135.2" r="2.7"/>
  <circle class="st2" cx="131.3" cy="123.2" r="2.7"/>
  <circle class="st2" cx="138.6" cy="129.2" r="2.7"/>
</svg>