<?xml version="1.0" encoding="UTF-8"?>
<svg id="Layer_1" xmlns="http://www.w3.org/2000/svg" version="1.1" viewBox="0 0 210.3 79.4">
  <!-- Generator: Adobe Illustrator 30.4.0, SVG Export Plug-In . SVG Version: 2.1.4 Build 226)  -->
  <defs>
    <style>
      .st0 {
        font-family: Akkurat, Akkurat;
        font-size: 23.9px;
      }

      .st0, .st1 {
        fill: #fff;
      }
    </style>
  </defs>
  <g>
    <path class="st1" d="M11.1,67.3l23.6-39.1c7.1-11.8,11.8-14.6,29.9-14.6h20.8v53.6h-10.8V23c-19.9,0-23.8-2.3-33.4,13.3l-18.3,31h-11.7Z"/>
    <path class="st1" d="M60.6,56.2v11.1h-19.4l1.9-3.6c1.4-2.4,2.6-4.7,4.6-5.8,0,0,2.4-1.6,6.5-1.6h6.5Z"/>
  </g>
  <text class="st0" transform="translate(172 59.4) scale(1 1)"><tspan x="0" y="0">©</tspan></text>
  <g>
    <path class="st1" d="M102.6,16.6v26.6h-3.9v-26.6h-21.2v-3h34.1v3h-9.1Z"/>
    <path class="st1" d="M116.5,39V13.7h20.4v2.9h-16.6v7.7h14.5v3h-14.5v8.8h16.6v2.9h-20.4Z"/>
    <path class="st1" d="M164.5,30.9c0,1.2-.4,2.3-.9,3.3-.5,1-1.2,1.8-2.1,2.6-.9.8-2.1,1.4-3.5,1.9-1.4.5-3,.8-4.6.8s-3-.2-4.5-.7c-1.4-.5-2.7-1.1-3.8-2-.8-.7-1.5-1.4-2-2.2-.5-.8-.9-1.6-1.2-2.5-.3-.9-.5-1.8-.5-2.8,0-1-.1-2-.1-3s0-2,.1-3c0-1,.3-1.9.5-2.8.3-.9.7-1.7,1.2-2.5.5-.8,1.2-1.5,2-2.2,1.1-.9,2.4-1.6,3.8-2,1.4-.5,2.9-.7,4.5-.7s3.2.2,4.6.7c1.4.5,2.6,1.1,3.5,1.9.9.8,1.6,1.6,2.1,2.6s.8,2,.9,3.2h-4c0-.7-.2-1.3-.5-1.9s-.7-1.1-1.2-1.6c-.6-.5-1.4-1-2.3-1.3-.9-.3-2-.5-3.2-.5s-2,.2-3,.5-1.8.8-2.6,1.4c-.6.5-1.1,1.2-1.5,1.8s-.6,1.4-.8,2.1c-.2.7-.3,1.5-.3,2.2,0,.7,0,1.4,0,2.1s0,1.4,0,2.1c0,.7.1,1.5.3,2.2.2.7.4,1.4.8,2.1s.8,1.3,1.5,1.8c.7.6,1.6,1.1,2.6,1.4s2,.5,3,.5,2.2-.2,3.2-.6c1-.4,1.7-.8,2.3-1.4.5-.5.9-1,1.2-1.7.3-.6.5-1.3.5-2h4Z"/>
    <path class="st1" d="M189,39v-11.7h-14.6v11.7h-3.8V13.7h3.8v10.6h14.6v-10.6h3.8v25.4h-3.8Z"/>
    <path class="st1" d="M98.8,67.3v-25.4h3.8v22.4h14.7v3h-18.5Z"/>
    <path class="st1" d="M140.3,67.3l-2.5-6h-13.3l-2.5,6h-3.9l10.8-25.4h4.5l10.8,25.4h-4ZM131.1,45.1l-5.4,13.2h10.8l-5.4-13.2Z"/>
    <path class="st1" d="M171.2,60.2c0,1-.2,1.9-.7,2.7-.4.8-1,1.5-1.7,2.1-.9.8-2,1.3-3.3,1.7-1.4.4-2.8.6-4.3.6h-12.3v-25.4h12.2c1.4,0,2.8.2,4.2.6,1.3.4,2.4,1,3.3,1.7.6.6,1.1,1.2,1.4,1.8s.5,1.5.5,2.4-.4,2.4-1.1,3.4c-.7,1.1-1.8,1.8-3.3,2.2.8.2,1.5.5,2.1.9.6.4,1.2.9,1.6,1.4.4.5.8,1.1,1,1.8s.3,1.3.3,2ZM166.6,48.7c0-.7-.2-1.3-.5-1.7-.3-.5-.7-.9-1.2-1.2-.5-.3-1.1-.6-1.8-.8-.7-.2-1.4-.3-2.1-.3h-8.4v8h8.6c1.6,0,2.9-.3,3.9-.9,1-.6,1.5-1.7,1.5-3.1ZM167.3,60c0-.7-.2-1.3-.5-1.9-.3-.5-.7-1-1.3-1.4s-1.2-.7-1.9-.9c-.7-.2-1.5-.3-2.3-.3h-8.6v8.8h8.6c.8,0,1.6,0,2.4-.3.7-.2,1.4-.4,1.9-.8s1-.8,1.3-1.4c.3-.5.5-1.2.5-2Z"/>
  </g>
</svg>